<svg xmlns="http://www.w3.org/2000/svg" version="1.1" xmlns:xlink="http://www.w3.org/1999/xlink" xmlns:svgjs="http://svgjs.dev/svgjs" width="2000" height="1085" viewBox="0 0 2000 1085"><g transform="matrix(1,0,0,1,-1.2121212121212466,-0.3219287101685495)"><svg viewBox="0 0 396 215" data-background-color="#ffffff" preserveAspectRatio="xMidYMid meet" height="1085" width="2000" xmlns="http://www.w3.org/2000/svg" xmlns:xlink="http://www.w3.org/1999/xlink"><g id="tight-bounds" transform="matrix(1,0,0,1,0.2400000000000091,0.06379232505643984)"><svg viewBox="0 0 395.52 214.87241534988712" height="214.87241534988712" width="395.52"><g><svg viewBox="0 0 395.52 214.87241534988712" height="214.87241534988712" width="395.52"><g><svg viewBox="0 0 395.52 214.87241534988712" height="214.87241534988712" width="395.52"><g id="textblocktransform"><svg viewBox="0 0 395.52 214.87241534988712" height="214.87241534988712" width="395.52" id="textblock"><g><svg viewBox="0 0 395.52 214.87241534988712" height="214.87241534988712" width="395.52"><g transform="matrix(1,0,0,1,0,0)"><svg width="395.52" viewBox="0.5 -34.85 66.44 36.1" height="214.87241534988712" data-palette-color="#ea3a36"><g class="wordmark-text-0" data-fill-palette-color="primary" id="text-0"><path d="M16.7-6.85L16.7-6.85Q16.7-4.7 15.88-3.1 15.05-1.5 14-0.75 12.95 0 11.5 0.45L11.5 0.45Q9.6 1.05 8.05 1.05L8.05 1.05Q4.8 1.05 2.65-0.23 0.5-1.5 0.5-4.3L0.5-4.3Q0.5-5.95 1.4-7L1.4-7Q2.8-8.55 4.75-8.55L4.75-8.55Q5.35-8.55 5.35-8L5.35-8Q5.35-7.95 5.13-7.23 4.9-6.5 4.9-5.4 4.9-4.3 5.78-3.45 6.65-2.6 7.9-2.6 9.15-2.6 9.9-3.03 10.65-3.45 10.95-4.1L10.95-4.1Q11.4-5 11.4-5.8L11.4-5.8Q11.4-7.25 9.95-8.3 8.5-9.35 6.75-9.95 5-10.55 3.55-11.95 2.1-13.35 2.1-15.45L2.1-15.45Q2.1-19.05 4.38-20.85 6.65-22.65 10.55-22.65L10.55-22.65Q12.25-22.65 14.13-22.18 16-21.7 16-20.58 16-19.45 15.63-18.5 15.25-17.55 14.7-17.55L14.7-17.55Q14.4-17.55 14.3-17.78 14.2-18 13.95-18.3 13.7-18.6 12.75-19.07 11.8-19.55 11.13-19.55 10.45-19.55 10.23-19.53 10-19.5 9.45-19.38 8.9-19.25 8.45-19L8.45-19Q7.3-18.35 7.3-17.1L7.3-17.1Q7.3-16.3 7.65-15.93 8-15.55 8.2-15.35 8.4-15.15 8.9-14.88 9.4-14.6 9.6-14.5 9.8-14.4 10.5-14.08 11.2-13.75 11.4-13.65L11.4-13.65Q16.7-11.15 16.7-6.85ZM23.6-18.85L23.6-18.85Q22.3-18.8 21.72-18.78 21.15-18.75 21.15-19.05 21.15-19.35 21.45-19.65L21.45-19.65Q24.65-22.6 32.25-22.6L32.25-22.6Q34.85-22.6 36.35-22.15L36.35-22.15 36.85-22Q37.45-21.75 37.45-21.45L37.45-21.45Q37.45-21.2 37.1-21.05L37.1-21.05Q35.75-20.65 34.5-19.78 33.25-18.9 33.25-18.55L33.25-18.55 33.55-18.2Q35.15-17.3 36.02-15.35 36.9-13.4 37-11.9L37-11.9 37.1-10.35Q37.1-5.4 34.35-2.2 31.6 1 26.85 1L26.85 1Q24.45 1 22.7 0.15 20.95-0.7 20.12-1.78 19.3-2.85 18.8-4.2L18.8-4.2Q18.2-6.05 18.2-8.03 18.2-10 18.87-12 19.55-14 20.42-14.95 21.3-15.9 22.4-16.5L22.4-16.5Q23.8-17.25 24.65-17.25 25.5-17.25 25.5-16.9L25.5-16.9 25.2-16.4Q24.1-15.1 23.62-13 23.15-10.9 23.15-9.28 23.15-7.65 23.55-6.05 23.95-4.45 24.45-3.68 24.95-2.9 25.6-2.5L25.6-2.5Q26.55-1.9 27.6-1.9 28.65-1.9 29.65-2.73 30.65-3.55 31.1-4.9L31.1-4.9Q32-7.4 32-10.05L32-10.05Q32-14.25 29.87-16.55 27.75-18.85 23.6-18.85ZM57.4-22.25L57.4-22.25Q56.5-16.85 56.5-8.5L56.5-8.5Q56.5-2.35 57-0.4L57-0.4 57.2 0.25Q57.2 0.9 56.09 0.9L56.09 0.9Q52.25 0.9 51.7-1.25L51.7-1.25Q51.65-1.5 51.47-1.5 51.3-1.5 51.15-1.3L51.15-1.3Q49.59 0.75 46.34 0.75L46.34 0.75Q44.55 0.75 42.59-0.15L42.59-0.15Q41.4-0.7 40.65-2.08 39.9-3.45 39.9-5.45L39.9-5.45 40.65-16.4Q40.65-19.85 39.95-21.3L39.95-21.3Q39.7-21.85 39.7-22L39.7-22Q39.7-22.3 39.95-22.4L39.95-22.4Q40.74-22.65 41.99-22.65L41.99-22.65Q46.84-22.65 46.84-18.65L46.84-18.65Q46.84-17.4 45.82-12.95 44.8-8.5 44.8-6.63 44.8-4.75 45.62-3.75 46.45-2.75 47.92-2.75 49.4-2.75 50.25-3.8 51.09-4.85 51.25-5.9L51.25-5.9 51.4-6.95Q51.59-8.7 51.59-13.1 51.59-17.5 51.32-18.68 51.05-19.85 51.05-20.15L51.05-20.15Q51.05-21.4 53.05-22.13 55.05-22.85 56.64-22.85L56.64-22.85Q57.4-22.85 57.4-22.25ZM66.54-28.6L66.54-28.6 66.24-10.25Q66.24-1.65 66.79 0.05L66.79 0.05Q66.94 0.35 66.94 0.65L66.94 0.65Q66.94 1.25 65.49 1.25 64.04 1.25 62.27 0.53 60.49-0.2 60.49-1.35L60.49-1.35Q61.49-8.35 61.49-20.05L61.49-20.05 61.29-27.7Q61.19-29.1 60.72-30.1 60.24-31.1 59.79-31.4L59.79-31.4 59.39-31.65Q59.04-31.85 59.04-32.1L59.04-32.1Q59.04-32.8 61.22-33.83 63.39-34.85 65.44-34.85L65.44-34.85Q66.24-34.85 66.34-34.3L66.34-34.3Q66.54-33 66.54-28.6Z" fill="#ea3a36" data-fill-palette-color="primary"></path></g></svg></g></svg></g></svg></g></svg></g></svg></g><defs></defs></svg><rect width="395.52" height="214.87241534988712" fill="none" stroke="none" visibility="hidden"></rect></g></svg></g></svg>